HIERARCHY
ROOT joint_Root
{
	OFFSET 0.0 0.0 0.0
	CHANNELS 6 Xposition Yposition Zposition Zrotation Xrotation Yrotation 
	JOINT Hips
	{
		OFFSET 4.5925 91.4895 -427.239
		CHANNELS 6 Xposition Yposition Zposition Zrotation Xrotation Yrotation 
		JOINT Spine
		{
			OFFSET 15.7357 0.0 0.0
			CHANNELS 6 Xposition Yposition Zposition Zrotation Xrotation Yrotation 
			JOINT Chest
			{
				OFFSET 8.98455 -0.406207 0.0
				CHANNELS 6 Xposition Yposition Zposition Zrotation Xrotation Yrotation 
				JOINT Neck
				{
					OFFSET 16.3773 0.0 0.0
					CHANNELS 6 Xposition Yposition Zposition Zrotation Xrotation Yrotation 
					JOINT Head
					{
						OFFSET 6.45672 0.0 0.0
						CHANNELS 6 Xposition Yposition Zposition Zrotation Xrotation Yrotation 
						End Site
						{
							OFFSET 0.0 0.0 0.0
						}
					}
				}
				JOINT Shoulder_L
				{
					OFFSET 12.9942 -0.242716 4.98039
					CHANNELS 6 Xposition Yposition Zposition Zrotation Xrotation Yrotation 
					JOINT UpperArm_L
					{
						OFFSET 5.34809 0.0 0.0
						CHANNELS 6 Xposition Yposition Zposition Zrotation Xrotation Yrotation 
						JOINT LowerArm_L
						{
							OFFSET 24.3286 1.87007e-05 0.0
							CHANNELS 6 Xposition Yposition Zposition Zrotation Xrotation Yrotation 
							JOINT Hand_L
							{
								OFFSET 22.2916 0.0 0.0
								CHANNELS 6 Xposition Yposition Zposition Zrotation Xrotation Yrotation 
								End Site
								{
									OFFSET 0.0 0.0 0.0
								}
							}
						}
					}
				}
				JOINT Shoulder_R
				{
					OFFSET 12.9945 -0.242716 -4.98039
					CHANNELS 6 Xposition Yposition Zposition Zrotation Xrotation Yrotation 
					JOINT UpperArm_R
					{
						OFFSET -5.34813 0.0 0.0
						CHANNELS 6 Xposition Yposition Zposition Zrotation Xrotation Yrotation 
						JOINT LowerArm_R
						{
							OFFSET -24.3289 0.000322201 0.0
							CHANNELS 6 Xposition Yposition Zposition Zrotation Xrotation Yrotation 
							JOINT Hand_R
							{
								OFFSET -22.2915 -0.000108084 0.0
								CHANNELS 6 Xposition Yposition Zposition Zrotation Xrotation Yrotation 
								End Site
								{
									OFFSET 0.0 0.0 0.0
								}
							}
						}
					}
				}
			}
		}
		JOINT UpperLeg_L
		{
			OFFSET -2.19248 -6.46944 0.0
			CHANNELS 6 Xposition Yposition Zposition Zrotation Xrotation Yrotation 
			JOINT LowerLeg_L
			{
				OFFSET 39.0811 0.0 -1.23785e-05
				CHANNELS 6 Xposition Yposition Zposition Zrotation Xrotation Yrotation 
				JOINT Foot_L
				{
					OFFSET 40.9854 0.0 -1.26872e-05
					CHANNELS 6 Xposition Yposition Zposition Zrotation Xrotation Yrotation 
					JOINT Toes_L
					{
						OFFSET 11.7543 0.0 0.0
						CHANNELS 6 Xposition Yposition Zposition Zrotation Xrotation Yrotation 
						End Site
						{
							OFFSET 0.0 0.0 0.0
						}
					}
				}
			}
		}
		JOINT UpperLeg_R
		{
			OFFSET -2.19251 6.46944 0.0
			CHANNELS 6 Xposition Yposition Zposition Zrotation Xrotation Yrotation 
			JOINT LowerLeg_R
			{
				OFFSET -39.0811 -0.00228153 -0.0401928
				CHANNELS 6 Xposition Yposition Zposition Zrotation Xrotation Yrotation 
				JOINT Foot_R
				{
					OFFSET -40.9854 0.0 0.0
					CHANNELS 6 Xposition Yposition Zposition Zrotation Xrotation Yrotation 
					JOINT Toes_R
					{
						OFFSET -11.7543 0.0 0.0
						CHANNELS 6 Xposition Yposition Zposition Zrotation Xrotation Yrotation 
						End Site
						{
							OFFSET 0.0 0.0 0.0
						}
					}
				}
			}
		}
	}
}
MOTION
Frames:	7
Frame Time:	0.0333333
0.000000 0.000000 0.000000 0.000000 0.000000 -0.000000 -2.339070 82.471300 0.939022 87.108300 -7.678150 10.579200 15.735700 0.000005 -0.000001 83.516500 80.602500 -83.686800 8.984550 -0.406207 -0.000000 10.911000 -2.111330 -0.138824 16.377300 -0.000001 -0.000001 -1.187090 0.621657 0.074936 6.456720 -0.000001 -0.000000 -6.963960 4.269350 -2.744120 12.994200 -0.242716 4.980390 -91.520600 4.899960 -72.735900 5.348090 -0.000007 -0.000001 -58.233500 32.074600 -14.604200 24.328600 0.000019 0.000005 8.290450 15.737800 -28.246300 22.291600 -0.000001 0.000005 14.929900 5.291640 0.304566 12.994500 -0.242716 -4.980390 88.041700 10.548700 -79.420700 -5.348130 -0.000001 -0.000004 -60.771100 9.916890 -15.799100 -24.328900 0.000322 -0.000009 -4.495340 -15.486000 -16.401900 -22.291500 -0.000108 -0.000004 9.133800 5.223990 2.132290 -2.192480 -6.469440 -0.000000 -170.083000 -13.057600 -12.713600 39.081100 -0.000007 -0.000012 -0.558816 0.305779 61.314200 40.985400 -0.000006 -0.000013 -1.307010 3.299170 -86.800300 11.754300 -0.000000 0.000003 -0.000618 -0.004749 -16.749600 -2.192510 6.469440 -0.000001 -178.918000 9.557100 166.363000 -39.081100 -0.002282 -0.040193 0.075648 -0.040453 60.823700 -40.985400 0.000008 0.000006 7.896900 2.037830 -85.852700 -11.754300 -0.000006 -0.000006 -1.058930 -1.315170 -16.904400
0.000000 0.000000 0.000000 0.000000 0.000000 -0.000000 -3.497750 83.810200 1.629690 86.581000 -5.727020 10.521800 15.735700 0.000005 -0.000001 81.693800 81.200900 -83.119600 8.984550 -0.406207 -0.000000 9.624200 -2.550360 -2.634910 16.377300 -0.000001 -0.000001 -0.517486 1.050190 -0.981883 6.456720 -0.000001 -0.000000 -6.408880 4.229000 -2.771660 12.994200 -0.242716 4.980390 -91.491700 4.597580 -72.001800 5.348090 -0.000007 -0.000001 -58.874000 27.344000 -13.516900 24.328600 0.000019 0.000005 7.953090 16.210000 -26.584900 22.291600 -0.000001 0.000005 15.755900 5.214230 2.357630 12.994500 -0.242716 -4.980390 88.113000 9.397070 -78.591500 -5.348130 -0.000001 -0.000004 -57.294300 0.007060 -16.377300 -24.328900 0.000322 -0.000009 -2.999000 -13.890200 -12.307100 -22.291500 -0.000108 -0.000004 5.136330 5.108700 4.911780 -2.192480 -6.469440 -0.000000 -168.700000 -12.051800 -10.584800 39.081100 -0.000007 -0.000012 -0.530910 0.341376 57.260100 40.985400 -0.000006 -0.000013 -1.612970 4.838150 -84.922300 11.754300 -0.000000 0.000003 -0.000559 -0.004372 -16.736600 -2.192510 6.469440 -0.000001 -177.901000 11.215000 169.221000 -39.081100 -0.002282 -0.040193 0.078262 -0.049760 56.451500 -40.985400 0.000008 0.000006 8.263430 1.522900 -84.208100 -11.754300 -0.000006 -0.000006 -1.183360 -1.469870 -17.058500
0.000000 0.000000 0.000000 0.000000 0.000000 -0.000000 -4.575960 85.877900 2.201990 86.133100 -3.727530 9.584840 15.735700 0.000005 -0.000001 78.458000 82.208800 -81.319700 8.984550 -0.406207 -0.000000 7.438410 -3.097870 -5.516810 16.377300 -0.000001 -0.000001 1.022840 1.332590 -1.892540 6.456720 -0.000001 -0.000000 -5.752140 3.788130 -1.597520 12.994200 -0.242716 4.980390 -91.236100 3.626160 -71.161300 5.348090 -0.000007 -0.000001 -59.585300 23.241400 -12.192600 24.328600 0.000019 0.000005 5.556060 12.630200 -23.981600 22.291600 -0.000001 0.000005 16.878900 5.192340 2.910430 12.994500 -0.242716 -4.980390 88.390900 7.711080 -78.174700 -5.348130 -0.000001 -0.000004 -52.507000 -14.324300 -18.654900 -24.328900 0.000322 -0.000009 -2.923700 -16.600400 -10.132800 -22.291500 -0.000108 -0.000004 8.522380 4.990190 7.511070 -2.192480 -6.469440 -0.000000 -167.768000 -11.282700 -8.316600 39.081100 -0.000007 -0.000012 -0.445378 0.365989 50.589400 40.985400 -0.000006 -0.000013 -2.021430 6.286400 -81.557300 11.754300 -0.000000 0.000003 -0.000412 -0.003389 -16.702400 -2.192510 6.469440 -0.000001 -177.082000 13.552000 172.163000 -39.081100 -0.002282 -0.040193 0.074979 -0.061052 49.597600 -40.985400 0.000008 0.000006 8.793590 2.051690 -80.808200 -11.754300 -0.000006 -0.000006 -1.269470 -1.559320 -17.656600
0.000000 0.000000 0.000000 0.000000 0.000000 -0.000000 -5.339850 87.867800 2.585750 85.649500 -2.696210 7.811530 15.735700 0.000005 -0.000001 75.795300 83.534400 -79.683000 8.984550 -0.406207 -0.000000 4.683170 -3.063060 -7.642220 16.377300 -0.000001 -0.000001 3.182350 1.374640 -2.802890 6.456720 -0.000001 -0.000000 -5.234360 3.505360 -0.581701 12.994200 -0.242716 4.980390 -91.042500 2.911390 -70.289700 5.348090 -0.000007 -0.000001 -59.798200 20.172900 -10.787900 24.328600 0.000019 0.000005 4.263580 10.661700 -21.947100 22.291600 -0.000001 0.000005 16.011400 5.210890 2.444490 12.994500 -0.242716 -4.980390 88.755200 5.663570 -77.582800 -5.348130 -0.000001 -0.000004 -46.996400 -30.411200 -24.720600 -24.328900 0.000322 -0.000009 -5.965300 -29.630200 -11.927800 -22.291500 -0.000108 -0.000004 16.351800 5.003770 7.256850 -2.192480 -6.469440 -0.000000 -167.196000 -11.257600 -6.591140 39.081100 -0.000007 -0.000012 -0.376195 0.397421 43.429200 40.985400 -0.000006 -0.000013 -2.584120 6.998460 -77.912500 11.754300 -0.000000 0.000003 -0.000303 -0.002621 -16.675200 -2.192510 6.469440 -0.000001 -176.550000 16.655500 173.957000 -39.081100 -0.002282 -0.040193 0.064807 -0.066552 42.757700 -40.985400 0.000008 0.000006 9.269610 4.714160 -76.375500 -11.754300 -0.000006 -0.000006 -1.726330 -2.077590 -18.826600
0.000000 0.000000 0.000000 0.000000 0.000000 -0.000000 -5.648910 89.229700 2.818090 85.279400 -2.711800 6.227430 15.735700 0.000005 -0.000001 74.495500 84.685100 -78.748700 8.984550 -0.406207 -0.000000 2.395640 -2.640390 -8.443480 16.377300 -0.000001 -0.000001 4.887900 1.468990 -3.539050 6.456720 -0.000001 -0.000000 -5.024910 3.542810 -0.036580 12.994200 -0.242716 4.980390 -91.088300 2.914640 -69.514500 5.348090 -0.000007 -0.000001 -59.551200 18.626000 -9.112390 24.328600 0.000019 0.000005 4.488130 11.783300 -21.025600 22.291600 -0.000001 0.000005 14.722100 5.205200 2.588720 12.994500 -0.242716 -4.980390 89.514600 2.311660 -78.141700 -5.348130 -0.000001 -0.000004 -40.960800 -44.043400 -33.067300 -24.328900 0.000322 -0.000009 -12.963000 -40.782800 -19.410600 -22.291500 -0.000108 -0.000004 17.635000 5.210670 2.434470 -2.192480 -6.469440 -0.000000 -167.315000 -10.635100 -5.374730 39.081100 -0.000007 -0.000012 -0.342999 0.440328 37.917900 40.985400 -0.000006 -0.000013 -3.410230 5.715950 -75.236800 11.754300 -0.000000 0.000003 -0.000258 -0.002294 -16.663400 -2.192510 6.469440 -0.000001 -176.617000 19.507200 175.144000 -39.081100 -0.002282 -0.040193 0.050135 -0.060650 37.685500 -40.985400 0.000008 0.000006 9.075160 8.866280 -73.487100 -11.754300 -0.000006 -0.000006 -0.981099 -1.175560 -18.886600
0.000000 0.000000 0.000000 0.000000 0.000000 -0.000000 -5.589970 89.956900 3.042300 85.586900 -4.076660 5.139950 15.735700 0.000005 -0.000001 78.638600 85.400200 -82.988600 8.984550 -0.406207 -0.000000 1.209360 -1.563060 -8.676320 16.377300 -0.000001 -0.000001 5.354500 1.314190 -3.152590 6.456720 -0.000001 -0.000000 -5.424050 3.508780 0.466408 12.994200 -0.242716 4.980390 -91.202800 3.138740 -69.019900 5.348090 -0.000007 -0.000001 -59.027600 18.077200 -7.977160 24.328600 0.000019 0.000005 5.268050 14.169100 -20.640200 22.291600 -0.000001 0.000005 13.854000 5.201950 2.670330 12.994500 -0.242716 -4.980390 90.613900 -3.038170 -78.574300 -5.348130 -0.000001 -0.000004 -30.128700 -51.872300 -37.127200 -24.328900 0.000322 -0.000009 -17.864100 -34.418700 -29.701300 -22.291500 -0.000108 -0.000004 16.360600 5.412880 -3.337360 -2.192480 -6.469440 -0.000000 -168.277000 -10.113200 -4.241080 39.081100 -0.000007 -0.000012 -0.323375 0.473781 34.315700 40.985400 -0.000006 -0.000013 -4.161780 3.305280 -73.823900 11.754300 -0.000000 0.000003 -0.000256 -0.002276 -16.662800 -2.192510 6.469440 -0.000001 -177.090000 19.720700 175.876000 -39.081100 -0.002282 -0.040193 0.038843 -0.051816 34.454200 -40.985400 0.000008 0.000006 9.029640 11.312200 -72.192200 -11.754300 -0.000006 -0.000006 -0.873426 -1.049130 -18.883000
0.000000 0.000000 0.000000 0.000000 0.000000 -0.000000 -5.528350 90.246400 3.102450 86.384500 -5.603140 4.328900 15.735700 0.000005 -0.000001 83.013400 85.855600 -87.410600 8.984550 -0.406207 -0.000000 0.448532 -0.727623 -8.785150 16.377300 -0.000001 -0.000001 5.490710 0.621048 -0.744280 6.456720 -0.000001 -0.000000 -6.055550 3.466990 0.210850 12.994200 -0.242716 4.980390 -91.195000 3.007050 -68.314900 5.348090 -0.000007 -0.000001 -58.539700 18.078300 -6.834880 24.328600 0.000019 0.000005 6.102610 16.452200 -20.681600 22.291600 -0.000001 0.000005 13.610700 5.205160 2.589310 12.994500 -0.242716 -4.980390 92.236300 -9.317700 -76.445200 -5.348130 -0.000001 -0.000004 -19.004500 -58.028400 -38.778200 -24.328900 0.000322 -0.000009 -16.491100 -18.416000 -43.158000 -22.291500 -0.000108 -0.000004 24.169600 5.534560 -7.937810 -2.192480 -6.469440 -0.000000 -169.286000 -10.993500 -3.714760 39.081100 -0.000007 -0.000012 -0.294891 0.465630 32.347300 40.985400 -0.000006 -0.000013 -4.392090 2.475850 -73.055900 11.754300 -0.000000 0.000003 -0.000285 -0.002495 -16.670600 -2.192510 6.469440 -0.000001 -177.300000 17.932800 175.935000 -39.081100 -0.002282 -0.040193 0.036966 -0.052759 32.545100 -40.985400 0.000008 0.000006 9.522940 10.696200 -72.079300 -11.754300 -0.000006 -0.000006 -1.413390 -1.688290 -18.977100
